# xmcd CD database file
#
# Track frame offsets:
#	150
#	21547
#	42950
#	64322
#
# Disc length: 1138 seconds
#
# Revision: 3
# Processed by: cddbd v1.5PL3 Copyright (c) Steve Scherf et al.
# Submitted via: CDex 1.50beta9
#
DISCID=35047004
DTITLE=中澤ゆうこ - 上海の風
DYEAR=2000
DGENRE=JPop
TTITLE0=上海の風
TTITLE1=雨よ
TTITLE2=上海の風（オリジナル・カラオケ）
TTITLE3=雨よ（オリジナル・カラオケ）
EXTD=YEAR: 2000
EXTT0=
EXTT1=
EXTT2=
EXTT3=
PLAYORDER=
